<svg version="1.1" id="Layer_1" xmlns="http://www.w3.org/2000/svg" xmlns:xlink="http://www.w3.org/1999/xlink" x="0px" y="0px"
	 width="100%" viewBox="0 0 500 499" enable-background="new 0 0 500 499" xml:space="preserve">
<path fill="#F8F8F8" opacity="1.000000" stroke="none" 
	d="
M419.572937,484.855408 
	C308.114563,484.939667 197.115570,485.036896 86.116837,484.900635 
	C47.108486,484.852753 13.336924,452.379913 13.382521,412.246490 
	C13.507471,302.268738 13.153247,192.289276 13.689606,82.313919 
	C13.817667,56.056141 27.609308,36.282616 49.503395,22.305138 
	C61.530750,14.626717 75.061615,11.753248 89.194641,11.480109 
	C99.990913,11.271458 110.790047,10.956787 121.585861,11.022892 
	C163.668045,11.280577 205.748962,11.752348 247.831223,11.983488 
	C275.496826,12.135444 303.164490,12.113573 330.830109,11.964812 
	C343.222046,11.898180 355.612762,11.009433 368.001465,11.064974 
	C385.943848,11.145414 403.959564,10.848480 421.805206,12.355762 
	C442.615875,14.113480 459.598602,24.287374 472.250153,40.953468 
	C482.323059,54.222656 487.359985,69.190117 487.330811,86.154556 
	C487.142181,195.818146 487.384888,305.482605 487.121887,415.145905 
	C487.065979,438.452209 475.959442,456.675293 457.655273,470.685303 
	C446.545898,479.188416 433.866058,483.530731 419.572937,484.855408 
M467.150848,281.500061 
	C467.178558,215.509277 467.169281,149.518433 467.267151,83.527748 
	C467.285309,71.281609 462.825623,60.752712 455.253326,51.557655 
	C443.521271,37.311375 428.032745,31.395498 409.740601,31.868641 
	C393.442108,32.290215 377.134064,32.447655 360.829468,32.503792 
	C332.499146,32.601337 304.167969,32.607018 275.837646,32.509071 
	C248.595703,32.414890 221.354507,32.014324 194.112732,31.987438 
	C174.204620,31.967793 154.296356,32.447845 134.387711,32.488819 
	C122.420090,32.513447 110.452217,32.037910 98.483284,31.954205 
	C92.347672,31.911295 86.085861,31.503963 80.093407,32.517132 
	C50.577393,37.507523 33.232277,58.993633 33.406292,88.887360 
	C33.646835,130.210556 33.503616,171.536072 33.500351,212.860580 
	C33.495140,278.850159 33.328617,344.840149 33.514542,410.829132 
	C33.603264,442.320007 56.814724,464.883728 88.283813,464.880035 
	C193.771683,464.867676 299.259552,464.885284 404.747406,464.839996 
	C410.546448,464.837524 416.360443,464.555145 422.141632,464.085358 
	C445.551941,462.182953 467.185181,438.934052 467.216766,415.481781 
	C467.276459,371.154663 467.181519,326.827301 467.150848,281.500061 
z"/>
<path fill="#FAF9F9" opacity="1.000000" stroke="none" 
	d="
M289.878723,104.133965 
	C292.330994,104.139183 294.298950,104.139183 296.984131,104.139183 
	C296.984131,111.419350 297.080383,118.328407 296.819489,125.223953 
	C296.796143,125.841064 294.460358,126.862747 293.195343,126.867645 
	C271.211121,126.952744 249.226410,126.906815 227.241806,126.903763 
	C226.938354,126.903717 226.634872,127.086784 225.918762,127.317108 
	C225.918762,135.699661 225.918762,144.204391 225.918762,153.139526 
	C234.358475,153.139526 242.471512,153.060059 250.582336,153.160446 
	C259.890289,153.275620 269.200806,153.432297 278.501892,153.787537 
	C288.503571,154.169556 297.570160,164.052704 297.765228,174.955200 
	C297.964813,186.109772 297.933105,197.273315 297.745514,208.428604 
	C297.552856,219.886215 286.101105,229.733017 274.257019,229.452972 
	C258.121216,229.071411 241.966644,228.709015 225.837219,229.080597 
	C213.436935,229.366257 202.815826,218.850479 202.896515,206.266418 
	C203.062012,180.451050 202.935684,154.633774 202.920807,128.817291 
	C202.912140,113.766945 212.299988,104.194649 227.435410,104.129044 
	C248.088013,104.039513 268.741364,104.120735 289.878723,104.133965 
M242.502136,206.077377 
	C251.976364,206.081116 261.453552,206.202164 270.921631,205.962173 
	C272.341980,205.926163 274.896454,204.242661 274.932465,203.248978 
	C275.250214,194.485489 275.116791,185.705658 275.116791,176.511810 
	C272.960724,176.390259 271.176270,176.205643 269.391510,176.202820 
	C258.627197,176.185791 247.862823,176.213242 237.098465,176.220276 
	C225.892960,176.227600 225.888062,176.224854 225.867279,187.518066 
	C225.856125,193.573730 225.865280,199.629410 225.865280,206.076340 
	C231.589920,206.076340 236.546875,206.076340 242.502136,206.077377 
z"/>
<path fill="#F8F7F7" opacity="1.000000" stroke="none" 
	d="
M128.999603,391.696472 
	C114.340652,391.694946 100.181740,391.690216 86.022835,391.676849 
	C83.181389,391.674164 81.097160,391.365143 81.109840,387.424622 
	C81.236389,348.102325 81.179016,308.779449 81.186432,269.456757 
	C81.186523,268.975739 81.355560,268.494751 81.549721,267.459106 
	C83.056908,267.363556 84.649429,267.175629 86.242058,267.174774 
	C108.069618,267.163025 129.897690,267.114441 151.723923,267.287872 
	C153.762573,267.304047 156.253494,268.264923 157.739777,269.643738 
	C163.352814,274.850861 168.785446,280.276459 173.953430,285.924255 
	C175.458344,287.568909 176.628647,290.220581 176.644073,292.419800 
	C176.814606,316.740723 176.828476,341.064575 176.559830,365.384033 
	C176.531570,367.941010 174.940781,370.924377 173.185394,372.932251 
	C168.615021,378.160004 163.781876,383.218903 158.574142,387.800232 
	C156.316284,389.786530 152.947784,391.278534 149.965408,391.517426 
	C143.182404,392.060730 136.326141,391.689667 128.999603,391.696472 
M153.474060,312.488647 
	C153.316544,309.031006 152.955765,305.568024 153.046417,302.116913 
	C153.205048,296.078491 147.510223,289.939484 141.429306,289.927643 
	C132.780411,289.910828 124.131447,289.926147 115.482513,289.927368 
	C111.907791,289.927856 108.333069,289.927429 104.654480,289.927429 
	C104.654480,316.347015 104.654480,342.049286 104.654480,368.295135 
	C117.757561,368.295135 130.600159,369.015228 143.266098,367.836609 
	C146.855972,367.502563 152.514359,361.828705 152.790466,358.260681 
	C153.939697,343.408539 153.396713,328.425476 153.474060,312.488647 
z"/>
<path fill="#F9F8F8" opacity="1.000000" stroke="none" 
	d="
M81.136406,141.999939 
	C81.136368,129.216125 81.136368,116.932320 81.136368,104.113701 
	C83.302330,104.113701 84.919647,104.113342 86.536957,104.113754 
	C114.702972,104.120895 142.869202,104.182671 171.034760,104.072296 
	C174.935349,104.057007 176.776657,104.610970 176.261093,109.283913 
	C175.646851,114.851212 176.116394,120.538078 176.116394,126.676918 
	C152.723907,126.676918 128.981674,126.676918 104.751785,126.676918 
	C104.751785,135.681183 104.751785,144.201706 104.751785,153.126236 
	C111.205101,153.126236 117.681091,153.052551 124.154778,153.143036 
	C134.571411,153.288605 144.986603,153.539124 155.402267,153.751755 
	C164.875900,153.945175 174.809906,161.231552 175.395004,170.588242 
	C176.281616,184.766571 176.104721,199.092194 175.158264,213.273727 
	C174.601257,221.619751 163.564926,229.334457 154.413376,229.432022 
	C142.623001,229.557755 130.829971,229.598236 119.039497,229.502274 
	C107.862091,229.411270 96.687134,229.026123 85.509712,228.925674 
	C82.359558,228.897385 81.033707,227.880066 81.152687,224.552979 
	C81.365768,218.594452 81.212738,212.622833 81.212738,206.065781 
	C105.282539,206.065781 129.029541,206.065781 153.118118,206.065781 
	C153.118118,195.964203 153.118118,186.455200 153.118118,176.364716 
	C129.355072,176.364716 105.620728,176.364716 81.136444,176.364716 
	C81.136444,164.699402 81.136444,153.599670 81.136406,141.999939 
z"/>
<path fill="#F9F8F8" opacity="1.000000" stroke="none" 
	d="
M241.999832,391.768341 
	C230.171967,391.718658 218.844162,391.662933 207.516296,391.623779 
	C204.812103,391.614441 202.877533,391.418823 202.888718,387.622620 
	C203.005478,347.982269 202.929428,308.341400 202.922562,268.700653 
	C202.922501,268.395081 203.139969,268.089417 203.382690,267.449310 
	C204.509064,267.361389 205.784531,267.175507 207.060074,267.174988 
	C235.556717,267.163452 264.053802,267.251068 292.549500,267.089050 
	C296.640106,267.065826 298.166840,268.070587 297.890228,272.340088 
	C297.526886,277.947998 297.800995,283.597198 297.800995,289.763397 
	C273.600586,289.763397 249.882462,289.763397 225.565521,289.763397 
	C225.565521,298.551208 225.433304,306.810822 225.766922,315.051575 
	C225.800842,315.889740 228.628448,317.272491 230.172424,317.290222 
	C245.667496,317.468140 261.165222,317.413269 276.662231,317.423645 
	C278.280640,317.424744 279.899048,317.423798 281.731262,317.423798 
	C281.731262,325.136414 281.731262,332.222290 281.731262,339.658722 
	C280.283691,339.789185 279.018860,340.000275 277.753632,340.002472 
	C262.089752,340.029999 246.423645,340.173401 230.763397,339.937012 
	C226.439987,339.871765 225.338913,341.377655 225.488831,345.427460 
	C225.764084,352.862885 225.567322,360.315765 225.567322,368.225006 
	C230.440521,368.225006 234.561310,368.221802 238.682114,368.225555 
	C256.846436,368.241974 275.012939,368.418579 293.173584,368.168427 
	C297.792755,368.104828 298.915222,369.666962 298.515808,373.911896 
	C298.127869,378.034912 298.094513,382.237396 298.405640,386.367310 
	C298.726532,390.627106 297.016083,391.788940 292.976044,391.756104 
	C276.151764,391.619293 259.325439,391.741272 241.999832,391.768341 
z"/>
<path fill="#F8F7F6" opacity="1.000000" stroke="none" 
	d="
M367.051178,391.543884 
	C356.103027,391.794556 356.058258,391.808319 353.046387,382.023590 
	C342.298401,347.106506 331.590149,312.177185 320.844696,277.259308 
	C319.890472,274.158600 318.775757,271.107300 317.453888,267.200500 
	C325.701752,267.200500 333.107056,267.091858 340.500580,267.337463 
	C341.428986,267.368286 342.765808,269.126160 343.121399,270.319794 
	C351.235413,297.558319 359.232788,324.831512 367.282806,352.089172 
	C367.672607,353.409149 368.343323,354.646149 369.366943,357.064636 
	C375.898071,335.022003 382.068420,314.305054 388.164551,293.566254 
	C390.403290,285.950012 392.323578,278.236664 394.730835,270.676422 
	C395.208252,269.177032 397.194641,267.182648 398.573975,267.110321 
	C405.521027,266.746155 412.497498,266.943085 420.242462,266.943085 
	C417.228973,276.852875 414.476807,285.961945 411.688904,295.060059 
	C403.684631,321.181610 395.657684,347.296234 387.660675,373.420044 
	C386.255432,378.010529 384.909485,382.620270 383.616943,387.243744 
	C382.809235,390.133057 381.256958,391.800323 378.011475,391.647949 
	C374.525452,391.484314 371.027985,391.563721 367.051178,391.543884 
z"/>
<path fill="#F8F7F7" opacity="1.000000" stroke="none" 
	d="
M397.999756,104.093536 
	C405.287201,104.093414 412.074707,104.093414 419.240570,104.093414 
	C419.240570,145.788391 419.240570,187.017334 419.240570,229.315033 
	C412.395081,229.315033 405.412720,229.499557 398.467194,229.077896 
	C397.613861,229.026108 396.313843,225.736496 396.305481,223.942276 
	C396.163879,193.639633 396.194397,163.336166 396.186859,133.032898 
	C396.186401,131.214722 396.186768,129.396530 396.186768,127.142273 
	C372.286072,127.142273 348.560455,127.142273 324.483032,127.142273 
	C324.483032,119.476784 324.483032,112.235130 324.483032,104.093651 
	C348.731415,104.093651 373.115601,104.093651 397.999756,104.093536 
z"/>
</svg>